<?xml version="1.0" encoding="UTF-8" standalone="no"?>
<!DOCTYPE svg PUBLIC "-//W3C//DTD SVG 1.1//EN"
 "http://www.w3.org/Graphics/SVG/1.1/DTD/svg11.dtd">
<!-- Generated by graphviz version 9.0.0 (20230911.1827)
 -->
<!-- Pages: 1 -->
<svg width="293pt" height="188pt"
 viewBox="0.00 0.00 293.18 188.00" xmlns="http://www.w3.org/2000/svg" xmlns:xlink="http://www.w3.org/1999/xlink">
<g id="graph0" class="graph" transform="scale(1 1) rotate(0) translate(4 184)">
<polygon fill="white" stroke="none" points="-4,4 -4,-184 289.18,-184 289.18,4 -4,4"/>
<!-- entry -->
<g id="node1" class="node">
<title>entry</title>
<ellipse fill="none" stroke="black" cx="158.6" cy="-162" rx="29.11" ry="18"/>
<text text-anchor="middle" x="158.6" y="-156.57" font-family="Times New Roman,serif" font-size="14.00">entry</text>
</g>
<!-- ifelse -->
<g id="node2" class="node">
<title>ifelse</title>
<ellipse fill="none" stroke="black" cx="79.6" cy="-90" rx="29.61" ry="18"/>
<text text-anchor="middle" x="79.6" y="-84.58" font-family="Times New Roman,serif" font-size="14.00">ifelse</text>
</g>
<!-- entry&#45;&gt;ifelse -->
<g id="edge1" class="edge">
<title>entry&#45;&gt;ifelse</title>
<path fill="none" stroke="crimson" stroke-dasharray="5,2" d="M142.61,-146.83C131.65,-137.13 116.9,-124.06 104.42,-113"/>
<polygon fill="crimson" stroke="crimson" points="106.77,-110.4 96.96,-106.39 102.13,-115.64 106.77,-110.4"/>
<text text-anchor="middle" x="99.2" y="-107.83" font-family="Times New Roman,serif" font-size="14.00">1</text>
</g>
<!-- ifthen -->
<g id="node5" class="node">
<title>ifthen</title>
<ellipse fill="none" stroke="black" cx="158.6" cy="-90" rx="31.1" ry="18"/>
<text text-anchor="middle" x="158.6" y="-84.58" font-family="Times New Roman,serif" font-size="14.00">ifthen</text>
</g>
<!-- entry&#45;&gt;ifthen -->
<g id="edge4" class="edge">
<title>entry&#45;&gt;ifthen</title>
<path fill="none" stroke="crimson" stroke-dasharray="5,2" d="M158.6,-143.7C158.6,-136.41 158.6,-127.73 158.6,-119.54"/>
<polygon fill="crimson" stroke="crimson" points="162.1,-119.62 158.6,-109.62 155.1,-119.62 162.1,-119.62"/>
<text text-anchor="middle" x="155.22" y="-110.55" font-family="Times New Roman,serif" font-size="14.00">1</text>
</g>
<!-- ifdone1 -->
<g id="node6" class="node">
<title>ifdone1</title>
<ellipse fill="none" stroke="black" cx="246.6" cy="-90" rx="38.59" ry="18"/>
<text text-anchor="middle" x="246.6" y="-84.58" font-family="Times New Roman,serif" font-size="14.00">ifdone1</text>
</g>
<!-- entry&#45;&gt;ifdone1 -->
<g id="edge5" class="edge">
<title>entry&#45;&gt;ifdone1</title>
<path fill="none" stroke="crimson" stroke-dasharray="5,2" d="M175.98,-147.17C188.23,-137.43 204.87,-124.19 218.93,-113.01"/>
<polygon fill="crimson" stroke="crimson" points="220.89,-115.92 226.54,-106.95 216.53,-110.44 220.89,-115.92"/>
<text text-anchor="middle" x="231.1" y="-108.46" font-family="Times New Roman,serif" font-size="14.00">1</text>
</g>
<!-- ifthen1 -->
<g id="node3" class="node">
<title>ifthen1</title>
<ellipse fill="none" stroke="black" cx="35.6" cy="-18" rx="35.6" ry="18"/>
<text text-anchor="middle" x="35.6" y="-12.57" font-family="Times New Roman,serif" font-size="14.00">ifthen1</text>
</g>
<!-- ifelse&#45;&gt;ifthen1 -->
<g id="edge2" class="edge">
<title>ifelse&#45;&gt;ifthen1</title>
<path fill="none" stroke="crimson" stroke-dasharray="5,2" d="M69.39,-72.76C64.24,-64.58 57.88,-54.45 52.06,-45.2"/>
<polygon fill="crimson" stroke="crimson" points="55.14,-43.52 46.86,-36.91 49.21,-47.24 55.14,-43.52"/>
<text text-anchor="middle" x="42.68" y="-38.08" font-family="Times New Roman,serif" font-size="14.00">2</text>
</g>
<!-- ifdone -->
<g id="node4" class="node">
<title>ifdone</title>
<ellipse fill="none" stroke="black" cx="123.6" cy="-18" rx="34.1" ry="18"/>
<text text-anchor="middle" x="123.6" y="-12.57" font-family="Times New Roman,serif" font-size="14.00">ifdone</text>
</g>
<!-- ifelse&#45;&gt;ifdone -->
<g id="edge3" class="edge">
<title>ifelse&#45;&gt;ifdone</title>
<path fill="none" stroke="crimson" stroke-dasharray="5,2" d="M89.8,-72.76C94.95,-64.58 101.31,-54.45 107.13,-45.2"/>
<polygon fill="crimson" stroke="crimson" points="109.98,-47.24 112.33,-36.91 104.05,-43.52 109.98,-47.24"/>
<text text-anchor="middle" x="109.76" y="-38.08" font-family="Times New Roman,serif" font-size="14.00">2</text>
</g>
<!-- ifthen1&#45;&gt;ifdone -->
<g id="edge6" class="edge">
<title>ifthen1&#45;&gt;ifdone</title>
<path fill="none" stroke="black" stroke-width="2" d="M71.69,-18C73.23,-18 74.78,-18 76.32,-18"/>
<polygon fill="black" stroke="black" stroke-width="2" points="76.1,-21.5 86.1,-18 76.1,-14.5 76.1,-21.5"/>
<text text-anchor="middle" x="85.75" y="-20.45" font-family="Times New Roman,serif" font-size="14.00">2</text>
</g>
<!-- ifdone&#45;&gt;ifdone1 -->
<g id="edge8" class="edge">
<title>ifdone&#45;&gt;ifdone1</title>
<path fill="none" stroke="black" stroke-width="2" d="M145.99,-31.75C164.36,-42.2 190.66,-57.17 211.77,-69.18"/>
<polygon fill="black" stroke="black" stroke-width="2" points="209.83,-72.1 220.25,-74.01 213.29,-66.02 209.83,-72.1"/>
<text text-anchor="middle" x="221.19" y="-62.2" font-family="Times New Roman,serif" font-size="14.00">1</text>
</g>
<!-- ifthen&#45;&gt;ifdone1 -->
<g id="edge7" class="edge">
<title>ifthen&#45;&gt;ifdone1</title>
<path fill="none" stroke="black" stroke-width="2" d="M189.88,-90C191.45,-90 193.02,-90 194.58,-90"/>
<polygon fill="black" stroke="black" stroke-width="2" points="194.57,-93.5 204.57,-90 194.57,-86.5 194.57,-93.5"/>
<text text-anchor="middle" x="204.23" y="-92.45" font-family="Times New Roman,serif" font-size="14.00">1</text>
</g>
</g>
</svg>
