<?xml version="1.0" encoding="UTF-8" standalone="no"?>
<!DOCTYPE svg PUBLIC "-//W3C//DTD SVG 1.1//EN"
 "http://www.w3.org/Graphics/SVG/1.1/DTD/svg11.dtd">
<!-- Generated by graphviz version 9.0.0 (20230911.1827)
 -->
<!-- Pages: 1 -->
<svg width="470pt" height="332pt"
 viewBox="0.00 0.00 469.69 332.00" xmlns="http://www.w3.org/2000/svg" xmlns:xlink="http://www.w3.org/1999/xlink">
<g id="graph0" class="graph" transform="scale(1 1) rotate(0) translate(4 328)">
<polygon fill="white" stroke="none" points="-4,4 -4,-328 465.69,-328 465.69,4 -4,4"/>
<!-- entry -->
<g id="node1" class="node">
<title>entry</title>
<ellipse fill="none" stroke="black" cx="254.6" cy="-306" rx="29.11" ry="18"/>
<text text-anchor="middle" x="254.6" y="-300.57" font-family="Times New Roman,serif" font-size="14.00">entry</text>
</g>
<!-- entry&#45;&gt;entry -->
<g id="edge1" class="edge">
<title>entry&#45;&gt;entry</title>
<path fill="none" stroke="crimson" stroke-dasharray="5,2" d="M275.91,-318.55C289.13,-321.57 301.7,-317.39 301.7,-306 301.7,-297.99 295.49,-293.55 287.2,-292.66"/>
<polygon fill="crimson" stroke="crimson" points="287.15,-289.16 277.42,-293.35 287.64,-296.14 287.15,-289.16"/>
<text text-anchor="middle" x="272.54" y="-280.15" font-family="Times New Roman,serif" font-size="14.00">1</text>
</g>
<!-- loopcond -->
<g id="node2" class="node">
<title>loopcond</title>
<ellipse fill="none" stroke="black" cx="254.6" cy="-234" rx="46.57" ry="18"/>
<text text-anchor="middle" x="254.6" y="-228.57" font-family="Times New Roman,serif" font-size="14.00">loopcond</text>
</g>
<!-- entry&#45;&gt;loopcond -->
<g id="edge2" class="edge">
<title>entry&#45;&gt;loopcond</title>
<path fill="none" stroke="crimson" stroke-dasharray="5,2" d="M254.6,-287.7C254.6,-280.41 254.6,-271.73 254.6,-263.54"/>
<polygon fill="crimson" stroke="crimson" points="258.1,-263.62 254.6,-253.62 251.1,-263.62 258.1,-263.62"/>
<text text-anchor="middle" x="251.22" y="-254.55" font-family="Times New Roman,serif" font-size="14.00">2</text>
</g>
<!-- loopend -->
<g id="node3" class="node">
<title>loopend</title>
<ellipse fill="none" stroke="black" cx="201.6" cy="-162" rx="41.08" ry="18"/>
<text text-anchor="middle" x="201.6" y="-156.57" font-family="Times New Roman,serif" font-size="14.00">loopend</text>
</g>
<!-- loopcond&#45;&gt;loopend -->
<g id="edge3" class="edge">
<title>loopcond&#45;&gt;loopend</title>
<path fill="none" stroke="crimson" stroke-dasharray="5,2" d="M242.03,-216.41C235.7,-208.04 227.88,-197.71 220.8,-188.37"/>
<polygon fill="crimson" stroke="crimson" points="223.81,-186.54 214.98,-180.68 218.22,-190.76 223.81,-186.54"/>
<text text-anchor="middle" x="210.69" y="-181.92" font-family="Times New Roman,serif" font-size="14.00">3</text>
</g>
<!-- loopbody -->
<g id="node9" class="node">
<title>loopbody</title>
<ellipse fill="none" stroke="black" cx="344.6" cy="-162" rx="47.07" ry="18"/>
<text text-anchor="middle" x="344.6" y="-156.57" font-family="Times New Roman,serif" font-size="14.00">loopbody</text>
</g>
<!-- loopcond&#45;&gt;loopbody -->
<g id="edge9" class="edge">
<title>loopcond&#45;&gt;loopbody</title>
<path fill="none" stroke="crimson" stroke-dasharray="5,2" d="M274.57,-217.46C286.6,-208.11 302.14,-196.02 315.52,-185.62"/>
<polygon fill="crimson" stroke="crimson" points="317.43,-188.57 323.17,-179.66 313.13,-183.04 317.43,-188.57"/>
<text text-anchor="middle" x="320.99" y="-181.18" font-family="Times New Roman,serif" font-size="14.00">3</text>
</g>
<!-- ifelse -->
<g id="node4" class="node">
<title>ifelse</title>
<ellipse fill="none" stroke="black" cx="81.6" cy="-90" rx="29.61" ry="18"/>
<text text-anchor="middle" x="81.6" y="-84.58" font-family="Times New Roman,serif" font-size="14.00">ifelse</text>
</g>
<!-- loopend&#45;&gt;ifelse -->
<g id="edge4" class="edge">
<title>loopend&#45;&gt;ifelse</title>
<path fill="none" stroke="crimson" stroke-dasharray="5,2" d="M177.6,-147C158.76,-136.01 132.4,-120.64 112.07,-108.78"/>
<polygon fill="crimson" stroke="crimson" points="114.06,-105.88 103.65,-103.87 110.53,-111.93 114.06,-105.88"/>
<text text-anchor="middle" x="98.97" y="-105.56" font-family="Times New Roman,serif" font-size="14.00">4</text>
</g>
<!-- ifthen1 -->
<g id="node7" class="node">
<title>ifthen1</title>
<ellipse fill="none" stroke="black" cx="164.6" cy="-90" rx="35.6" ry="18"/>
<text text-anchor="middle" x="164.6" y="-84.58" font-family="Times New Roman,serif" font-size="14.00">ifthen1</text>
</g>
<!-- loopend&#45;&gt;ifthen1 -->
<g id="edge7" class="edge">
<title>loopend&#45;&gt;ifthen1</title>
<path fill="none" stroke="crimson" stroke-dasharray="5,2" d="M192.64,-144.05C188.46,-136.14 183.38,-126.54 178.7,-117.69"/>
<polygon fill="crimson" stroke="crimson" points="181.94,-116.33 174.18,-109.13 175.76,-119.6 181.94,-116.33"/>
<text text-anchor="middle" x="170.09" y="-110.24" font-family="Times New Roman,serif" font-size="14.00">4</text>
</g>
<!-- ifdone2 -->
<g id="node8" class="node">
<title>ifdone2</title>
<ellipse fill="none" stroke="black" cx="256.6" cy="-90" rx="38.59" ry="18"/>
<text text-anchor="middle" x="256.6" y="-84.58" font-family="Times New Roman,serif" font-size="14.00">ifdone2</text>
</g>
<!-- loopend&#45;&gt;ifdone2 -->
<g id="edge8" class="edge">
<title>loopend&#45;&gt;ifdone2</title>
<path fill="none" stroke="crimson" stroke-dasharray="5,2" d="M214.35,-144.76C221.02,-136.28 229.32,-125.71 236.8,-116.2"/>
<polygon fill="crimson" stroke="crimson" points="239.55,-118.36 242.97,-108.34 234.04,-114.04 239.55,-118.36"/>
<text text-anchor="middle" x="240.53" y="-109.6" font-family="Times New Roman,serif" font-size="14.00">4</text>
</g>
<!-- ifthen2 -->
<g id="node5" class="node">
<title>ifthen2</title>
<ellipse fill="none" stroke="black" cx="35.6" cy="-18" rx="35.6" ry="18"/>
<text text-anchor="middle" x="35.6" y="-12.57" font-family="Times New Roman,serif" font-size="14.00">ifthen2</text>
</g>
<!-- ifelse&#45;&gt;ifthen2 -->
<g id="edge5" class="edge">
<title>ifelse&#45;&gt;ifthen2</title>
<path fill="none" stroke="crimson" stroke-dasharray="5,2" d="M70.93,-72.76C65.41,-64.37 58.55,-53.93 52.35,-44.5"/>
<polygon fill="crimson" stroke="crimson" points="55.45,-42.85 47.04,-36.41 49.6,-46.69 55.45,-42.85"/>
<text text-anchor="middle" x="42.83" y="-37.6" font-family="Times New Roman,serif" font-size="14.00">5</text>
</g>
<!-- ifdone1 -->
<g id="node6" class="node">
<title>ifdone1</title>
<ellipse fill="none" stroke="black" cx="127.6" cy="-18" rx="38.59" ry="18"/>
<text text-anchor="middle" x="127.6" y="-12.57" font-family="Times New Roman,serif" font-size="14.00">ifdone1</text>
</g>
<!-- ifelse&#45;&gt;ifdone1 -->
<g id="edge6" class="edge">
<title>ifelse&#45;&gt;ifdone1</title>
<path fill="none" stroke="crimson" stroke-dasharray="5,2" d="M92.26,-72.76C97.64,-64.58 104.3,-54.45 110.38,-45.2"/>
<polygon fill="crimson" stroke="crimson" points="113.27,-47.18 115.83,-36.9 107.42,-43.33 113.27,-47.18"/>
<text text-anchor="middle" x="120.04" y="-38.08" font-family="Times New Roman,serif" font-size="14.00">5</text>
</g>
<!-- ifthen2&#45;&gt;ifdone1 -->
<g id="edge13" class="edge">
<title>ifthen2&#45;&gt;ifdone1</title>
<path fill="none" stroke="black" stroke-width="2" d="M71.53,-18C72.96,-18 74.38,-18 75.8,-18"/>
<polygon fill="black" stroke="black" stroke-width="2" points="75.59,-21.5 85.59,-18 75.59,-14.5 75.59,-21.5"/>
<text text-anchor="middle" x="85.24" y="-20.45" font-family="Times New Roman,serif" font-size="14.00">5</text>
</g>
<!-- ifdone1&#45;&gt;ifdone2 -->
<g id="edge15" class="edge">
<title>ifdone1&#45;&gt;ifdone2</title>
<path fill="none" stroke="black" stroke-width="2" d="M152.07,-32.28C171.5,-42.83 198.95,-57.72 220.84,-69.6"/>
<polygon fill="black" stroke="black" stroke-width="2" points="218.91,-72.53 229.37,-74.23 222.25,-66.38 218.91,-72.53"/>
<text text-anchor="middle" x="232.03" y="-62.37" font-family="Times New Roman,serif" font-size="14.00">4</text>
</g>
<!-- ifthen1&#45;&gt;ifdone2 -->
<g id="edge14" class="edge">
<title>ifthen1&#45;&gt;ifdone2</title>
<path fill="none" stroke="black" stroke-width="2" d="M200.53,-90C201.96,-90 203.38,-90 204.8,-90"/>
<polygon fill="black" stroke="black" stroke-width="2" points="204.59,-93.5 214.59,-90 204.59,-86.5 204.59,-93.5"/>
<text text-anchor="middle" x="214.24" y="-92.45" font-family="Times New Roman,serif" font-size="14.00">4</text>
</g>
<!-- ifthen -->
<g id="node10" class="node">
<title>ifthen</title>
<ellipse fill="none" stroke="black" cx="344.6" cy="-90" rx="31.1" ry="18"/>
<text text-anchor="middle" x="344.6" y="-84.58" font-family="Times New Roman,serif" font-size="14.00">ifthen</text>
</g>
<!-- loopbody&#45;&gt;ifthen -->
<g id="edge10" class="edge">
<title>loopbody&#45;&gt;ifthen</title>
<path fill="none" stroke="crimson" stroke-dasharray="5,2" d="M344.6,-143.7C344.6,-136.41 344.6,-127.73 344.6,-119.54"/>
<polygon fill="crimson" stroke="crimson" points="348.1,-119.62 344.6,-109.62 341.1,-119.62 348.1,-119.62"/>
<text text-anchor="middle" x="341.22" y="-110.55" font-family="Times New Roman,serif" font-size="14.00">4</text>
</g>
<!-- ifdone -->
<g id="node11" class="node">
<title>ifdone</title>
<ellipse fill="none" stroke="black" cx="427.6" cy="-90" rx="34.1" ry="18"/>
<text text-anchor="middle" x="427.6" y="-84.58" font-family="Times New Roman,serif" font-size="14.00">ifdone</text>
</g>
<!-- loopbody&#45;&gt;ifdone -->
<g id="edge11" class="edge">
<title>loopbody&#45;&gt;ifdone</title>
<path fill="none" stroke="crimson" stroke-dasharray="5,2" d="M363.43,-145.12C374.67,-135.64 389.1,-123.46 401.44,-113.06"/>
<polygon fill="crimson" stroke="crimson" points="403.43,-115.96 408.81,-106.84 398.91,-110.61 403.43,-115.96"/>
<text text-anchor="middle" x="406.6" y="-108.31" font-family="Times New Roman,serif" font-size="14.00">4</text>
</g>
<!-- ifthen&#45;&gt;ifdone -->
<g id="edge16" class="edge">
<title>ifthen&#45;&gt;ifdone</title>
<path fill="none" stroke="black" stroke-width="2" d="M376.04,-90C377.49,-90 378.93,-90 380.37,-90"/>
<polygon fill="black" stroke="black" stroke-width="2" points="380.34,-93.5 390.33,-90 380.33,-86.5 380.34,-93.5"/>
<text text-anchor="middle" x="389.99" y="-92.45" font-family="Times New Roman,serif" font-size="14.00">4</text>
</g>
<!-- ifdone&#45;&gt;loopcond -->
<g id="edge12" class="edge">
<title>ifdone&#45;&gt;loopcond</title>
<path fill="none" stroke="black" stroke-width="2" d="M426.83,-108.34C425.05,-128.13 419.25,-160.31 400.6,-180 377.22,-204.66 341.49,-217.89 311.22,-224.96"/>
<polygon fill="black" stroke="black" stroke-width="2" points="310.66,-221.5 301.6,-227 312.11,-228.35 310.66,-221.5"/>
<text text-anchor="middle" x="302.02" y="-214.33" font-family="Times New Roman,serif" font-size="14.00">2</text>
</g>
</g>
</svg>
