<?xml version="1.0" encoding="UTF-8" standalone="no"?>
<!DOCTYPE svg PUBLIC "-//W3C//DTD SVG 1.1//EN"
 "http://www.w3.org/Graphics/SVG/1.1/DTD/svg11.dtd">
<!-- Generated by graphviz version 9.0.0 (20230911.1827)
 -->
<!-- Pages: 1 -->
<svg width="230pt" height="332pt"
 viewBox="0.00 0.00 229.69 332.00" xmlns="http://www.w3.org/2000/svg" xmlns:xlink="http://www.w3.org/1999/xlink">
<g id="graph0" class="graph" transform="scale(1 1) rotate(0) translate(4 328)">
<polygon fill="white" stroke="none" points="-4,4 -4,-328 225.69,-328 225.69,4 -4,4"/>
<!-- entry -->
<g id="node1" class="node">
<title>entry</title>
<ellipse fill="none" stroke="black" cx="81.59" cy="-306" rx="29.11" ry="18"/>
<text text-anchor="middle" x="81.59" y="-300.57" font-family="Times New Roman,serif" font-size="14.00">entry</text>
</g>
<!-- ifthen -->
<g id="node2" class="node">
<title>ifthen</title>
<ellipse fill="none" stroke="black" cx="38.59" cy="-162" rx="31.1" ry="18"/>
<text text-anchor="middle" x="38.59" y="-156.57" font-family="Times New Roman,serif" font-size="14.00">ifthen</text>
</g>
<!-- entry&#45;&gt;ifthen -->
<g id="edge1" class="edge">
<title>entry&#45;&gt;ifthen</title>
<path fill="none" stroke="black" d="M76.4,-287.87C69.14,-263.88 55.85,-219.99 47.12,-191.16"/>
<polygon fill="black" stroke="black" points="50.48,-190.19 44.23,-181.64 43.78,-192.22 50.48,-190.19"/>
<text text-anchor="middle" x="40.42" y="-182.64" font-family="Times New Roman,serif" font-size="14.00">1</text>
</g>
<!-- ifelse -->
<g id="node3" class="node">
<title>ifelse</title>
<ellipse fill="none" stroke="black" cx="123.59" cy="-234" rx="29.61" ry="18"/>
<text text-anchor="middle" x="123.59" y="-228.57" font-family="Times New Roman,serif" font-size="14.00">ifelse</text>
</g>
<!-- entry&#45;&gt;ifelse -->
<g id="edge2" class="edge">
<title>entry&#45;&gt;ifelse</title>
<path fill="none" stroke="black" d="M91.33,-288.76C96.31,-280.46 102.5,-270.15 108.11,-260.79"/>
<polygon fill="black" stroke="black" points="110.98,-262.82 113.12,-252.45 104.98,-259.22 110.98,-262.82"/>
<text text-anchor="middle" x="117.28" y="-253.6" font-family="Times New Roman,serif" font-size="14.00">1</text>
</g>
<!-- ifdone1 -->
<g id="node4" class="node">
<title>ifdone1</title>
<ellipse fill="none" stroke="black" cx="38.59" cy="-18" rx="38.59" ry="18"/>
<text text-anchor="middle" x="38.59" y="-12.57" font-family="Times New Roman,serif" font-size="14.00">ifdone1</text>
</g>
<!-- ifthen&#45;&gt;ifdone1 -->
<g id="edge3" class="edge">
<title>ifthen&#45;&gt;ifdone1</title>
<path fill="none" stroke="black" d="M38.59,-143.59C38.59,-119.61 38.59,-76.14 38.59,-47.42"/>
<polygon fill="black" stroke="black" points="42.09,-47.62 38.59,-37.62 35.09,-47.62 42.09,-47.62"/>
<text text-anchor="middle" x="35.21" y="-38.56" font-family="Times New Roman,serif" font-size="14.00">2</text>
</g>
<!-- ifthen1 -->
<g id="node5" class="node">
<title>ifthen1</title>
<ellipse fill="none" stroke="black" cx="123.59" cy="-162" rx="35.6" ry="18"/>
<text text-anchor="middle" x="123.59" y="-156.57" font-family="Times New Roman,serif" font-size="14.00">ifthen1</text>
</g>
<!-- ifelse&#45;&gt;ifthen1 -->
<g id="edge4" class="edge">
<title>ifelse&#45;&gt;ifthen1</title>
<path fill="none" stroke="black" d="M123.59,-215.7C123.59,-208.41 123.59,-199.73 123.59,-191.54"/>
<polygon fill="black" stroke="black" points="127.09,-191.62 123.59,-181.62 120.09,-191.62 127.09,-191.62"/>
<text text-anchor="middle" x="120.21" y="-182.55" font-family="Times New Roman,serif" font-size="14.00">2</text>
</g>
<!-- ifdone -->
<g id="node6" class="node">
<title>ifdone</title>
<ellipse fill="none" stroke="black" cx="187.59" cy="-90" rx="34.1" ry="18"/>
<text text-anchor="middle" x="187.59" y="-84.58" font-family="Times New Roman,serif" font-size="14.00">ifdone</text>
</g>
<!-- ifelse&#45;&gt;ifdone -->
<g id="edge5" class="edge">
<title>ifelse&#45;&gt;ifdone</title>
<path fill="none" stroke="black" d="M139.21,-218.69C149.1,-208.77 161.34,-194.73 168.59,-180 177.93,-161.02 182.69,-137.55 185.12,-119.47"/>
<polygon fill="black" stroke="black" points="188.57,-120.05 186.25,-109.72 181.62,-119.25 188.57,-120.05"/>
<text text-anchor="middle" x="183.05" y="-110.66" font-family="Times New Roman,serif" font-size="14.00">2</text>
</g>
<!-- ifthen1&#45;&gt;ifdone -->
<g id="edge6" class="edge">
<title>ifthen1&#45;&gt;ifdone</title>
<path fill="none" stroke="black" stroke-dasharray="5,2" d="M138.11,-145.12C146.33,-136.13 156.76,-124.72 165.92,-114.7"/>
<polygon fill="black" stroke="black" points="168.38,-117.2 172.54,-107.46 163.21,-112.48 168.38,-117.2"/>
<text text-anchor="middle" x="170.19" y="-108.79" font-family="Times New Roman,serif" font-size="14.00">2</text>
</g>
<!-- ifdone&#45;&gt;ifdone1 -->
<g id="edge7" class="edge">
<title>ifdone&#45;&gt;ifdone1</title>
<path fill="none" stroke="black" stroke-dasharray="5,2" d="M162.65,-77.28C138.81,-66.08 102.57,-49.06 75.41,-36.3"/>
<polygon fill="black" stroke="black" points="77.03,-33.19 66.49,-32.11 74.05,-39.53 77.03,-33.19"/>
<text text-anchor="middle" x="61.74" y="-33.91" font-family="Times New Roman,serif" font-size="14.00">2</text>
</g>
</g>
</svg>
