<?xml version="1.0" encoding="UTF-8" standalone="no"?>
<!DOCTYPE svg PUBLIC "-//W3C//DTD SVG 1.1//EN"
 "http://www.w3.org/Graphics/SVG/1.1/DTD/svg11.dtd">
<!-- Generated by graphviz version 9.0.0 (20230911.1827)
 -->
<!-- Pages: 1 -->
<svg width="315pt" height="476pt"
 viewBox="0.00 0.00 314.66 476.00" xmlns="http://www.w3.org/2000/svg" xmlns:xlink="http://www.w3.org/1999/xlink">
<g id="graph0" class="graph" transform="scale(1 1) rotate(0) translate(4 472)">
<polygon fill="white" stroke="none" points="-4,4 -4,-472 310.66,-472 310.66,4 -4,4"/>
<!-- entry -->
<g id="node1" class="node">
<title>entry</title>
<ellipse fill="none" stroke="black" cx="122.07" cy="-450" rx="29.11" ry="18"/>
<text text-anchor="middle" x="122.07" y="-444.57" font-family="Times New Roman,serif" font-size="14.00">entry</text>
</g>
<!-- loopcond -->
<g id="node2" class="node">
<title>loopcond</title>
<ellipse fill="none" stroke="black" cx="122.07" cy="-378" rx="46.57" ry="18"/>
<text text-anchor="middle" x="122.07" y="-372.57" font-family="Times New Roman,serif" font-size="14.00">loopcond</text>
</g>
<!-- entry&#45;&gt;loopcond -->
<g id="edge1" class="edge">
<title>entry&#45;&gt;loopcond</title>
<path fill="none" stroke="black" d="M122.07,-431.7C122.07,-424.41 122.07,-415.73 122.07,-407.54"/>
<polygon fill="black" stroke="black" points="125.57,-407.62 122.07,-397.62 118.57,-407.62 125.57,-407.62"/>
</g>
<!-- loopbody -->
<g id="node3" class="node">
<title>loopbody</title>
<ellipse fill="none" stroke="black" cx="47.07" cy="-306" rx="47.07" ry="18"/>
<text text-anchor="middle" x="47.07" y="-300.57" font-family="Times New Roman,serif" font-size="14.00">loopbody</text>
</g>
<!-- loopcond&#45;&gt;loopbody -->
<g id="edge2" class="edge">
<title>loopcond&#45;&gt;loopbody</title>
<path fill="none" stroke="black" d="M105.05,-361.12C95.44,-352.14 83.23,-340.74 72.5,-330.73"/>
<polygon fill="black" stroke="black" points="75.09,-328.36 65.39,-324.1 70.31,-333.48 75.09,-328.36"/>
</g>
<!-- loopend -->
<g id="node4" class="node">
<title>loopend</title>
<ellipse fill="none" stroke="black" cx="191.07" cy="-306" rx="41.08" ry="18"/>
<text text-anchor="middle" x="191.07" y="-300.57" font-family="Times New Roman,serif" font-size="14.00">loopend</text>
</g>
<!-- loopcond&#45;&gt;loopend -->
<g id="edge3" class="edge">
<title>loopcond&#45;&gt;loopend</title>
<path fill="none" stroke="black" d="M138.08,-360.76C146.91,-351.8 158.04,-340.51 167.82,-330.59"/>
<polygon fill="black" stroke="black" points="170.04,-333.32 174.57,-323.74 165.05,-328.41 170.04,-333.32"/>
</g>
<!-- ifthen -->
<g id="node5" class="node">
<title>ifthen</title>
<ellipse fill="none" stroke="black" cx="63.07" cy="-234" rx="31.1" ry="18"/>
<text text-anchor="middle" x="63.07" y="-228.57" font-family="Times New Roman,serif" font-size="14.00">ifthen</text>
</g>
<!-- loopbody&#45;&gt;ifthen -->
<g id="edge4" class="edge">
<title>loopbody&#45;&gt;ifthen</title>
<path fill="none" stroke="black" d="M51.03,-287.7C52.71,-280.32 54.72,-271.52 56.61,-263.25"/>
<polygon fill="black" stroke="black" points="60.01,-264.11 58.83,-253.58 53.18,-262.55 60.01,-264.11"/>
</g>
<!-- ifdone -->
<g id="node6" class="node">
<title>ifdone</title>
<ellipse fill="none" stroke="black" cx="63.07" cy="-162" rx="34.1" ry="18"/>
<text text-anchor="middle" x="63.07" y="-156.57" font-family="Times New Roman,serif" font-size="14.00">ifdone</text>
</g>
<!-- loopbody&#45;&gt;ifdone -->
<g id="edge5" class="edge">
<title>loopbody&#45;&gt;ifdone</title>
<path fill="none" stroke="black" d="M36.59,-288.09C26.78,-270.05 14.79,-240.73 23.07,-216 26.62,-205.4 33.22,-195.23 40.05,-186.68"/>
<polygon fill="black" stroke="black" points="42.57,-189.12 46.43,-179.25 37.26,-184.56 42.57,-189.12"/>
</g>
<!-- ifthen1 -->
<g id="node7" class="node">
<title>ifthen1</title>
<ellipse fill="none" stroke="black" cx="176.07" cy="-90" rx="35.6" ry="18"/>
<text text-anchor="middle" x="176.07" y="-84.58" font-family="Times New Roman,serif" font-size="14.00">ifthen1</text>
</g>
<!-- loopend&#45;&gt;ifthen1 -->
<g id="edge8" class="edge">
<title>loopend&#45;&gt;ifthen1</title>
<path fill="none" stroke="black" d="M189.87,-287.85C187.3,-251.14 181.23,-164.66 178.07,-119.53"/>
<polygon fill="black" stroke="black" points="181.58,-119.47 177.39,-109.74 174.59,-119.96 181.58,-119.47"/>
</g>
<!-- ifelse -->
<g id="node8" class="node">
<title>ifelse</title>
<ellipse fill="none" stroke="black" cx="240.07" cy="-234" rx="29.61" ry="18"/>
<text text-anchor="middle" x="240.07" y="-228.57" font-family="Times New Roman,serif" font-size="14.00">ifelse</text>
</g>
<!-- loopend&#45;&gt;ifelse -->
<g id="edge9" class="edge">
<title>loopend&#45;&gt;ifelse</title>
<path fill="none" stroke="black" d="M202.68,-288.41C208.57,-280.01 215.83,-269.63 222.39,-260.26"/>
<polygon fill="black" stroke="black" points="225.14,-262.43 228.01,-252.23 219.41,-258.41 225.14,-262.43"/>
</g>
<!-- ifthen&#45;&gt;ifdone -->
<g id="edge6" class="edge">
<title>ifthen&#45;&gt;ifdone</title>
<path fill="none" stroke="black" d="M63.07,-215.7C63.07,-208.41 63.07,-199.73 63.07,-191.54"/>
<polygon fill="black" stroke="black" points="66.57,-191.62 63.07,-181.62 59.57,-191.62 66.57,-191.62"/>
</g>
<!-- ifdone&#45;&gt;loopcond -->
<g id="edge7" class="edge">
<title>ifdone&#45;&gt;loopcond</title>
<path fill="none" stroke="black" d="M78.14,-178.32C86.94,-188.23 97.4,-201.88 103.07,-216 120.73,-259.96 123.38,-315.72 123.13,-348.75"/>
<polygon fill="black" stroke="black" points="119.64,-348.26 122.95,-358.32 126.63,-348.38 119.64,-348.26"/>
</g>
<!-- ifdone2 -->
<g id="node9" class="node">
<title>ifdone2</title>
<ellipse fill="none" stroke="black" cx="222.07" cy="-18" rx="38.59" ry="18"/>
<text text-anchor="middle" x="222.07" y="-12.57" font-family="Times New Roman,serif" font-size="14.00">ifdone2</text>
</g>
<!-- ifthen1&#45;&gt;ifdone2 -->
<g id="edge10" class="edge">
<title>ifthen1&#45;&gt;ifdone2</title>
<path fill="none" stroke="black" d="M186.97,-72.41C192.36,-64.22 198.98,-54.14 205.02,-44.95"/>
<polygon fill="black" stroke="black" points="207.85,-47.01 210.42,-36.73 202,-43.17 207.85,-47.01"/>
</g>
<!-- ifthen2 -->
<g id="node10" class="node">
<title>ifthen2</title>
<ellipse fill="none" stroke="black" cx="240.07" cy="-162" rx="35.6" ry="18"/>
<text text-anchor="middle" x="240.07" y="-156.57" font-family="Times New Roman,serif" font-size="14.00">ifthen2</text>
</g>
<!-- ifelse&#45;&gt;ifthen2 -->
<g id="edge11" class="edge">
<title>ifelse&#45;&gt;ifthen2</title>
<path fill="none" stroke="black" d="M240.07,-215.7C240.07,-208.41 240.07,-199.73 240.07,-191.54"/>
<polygon fill="black" stroke="black" points="243.57,-191.62 240.07,-181.62 236.57,-191.62 243.57,-191.62"/>
</g>
<!-- ifdone1 -->
<g id="node11" class="node">
<title>ifdone1</title>
<ellipse fill="none" stroke="black" cx="268.07" cy="-90" rx="38.59" ry="18"/>
<text text-anchor="middle" x="268.07" y="-84.58" font-family="Times New Roman,serif" font-size="14.00">ifdone1</text>
</g>
<!-- ifelse&#45;&gt;ifdone1 -->
<g id="edge12" class="edge">
<title>ifelse&#45;&gt;ifdone1</title>
<path fill="none" stroke="black" d="M256.73,-219.14C267.07,-209.4 279.41,-195.41 285.07,-180 292.4,-160.04 287.25,-136.35 280.76,-118.42"/>
<polygon fill="black" stroke="black" points="284.05,-117.23 277.09,-109.24 277.55,-119.83 284.05,-117.23"/>
</g>
<!-- ifthen2&#45;&gt;ifdone1 -->
<g id="edge13" class="edge">
<title>ifthen2&#45;&gt;ifdone1</title>
<path fill="none" stroke="black" d="M246.85,-144.05C249.95,-136.32 253.69,-126.96 257.17,-118.27"/>
<polygon fill="black" stroke="black" points="260.33,-119.78 260.79,-109.19 253.83,-117.18 260.33,-119.78"/>
</g>
<!-- ifdone1&#45;&gt;ifdone2 -->
<g id="edge14" class="edge">
<title>ifdone1&#45;&gt;ifdone2</title>
<path fill="none" stroke="black" d="M257.17,-72.41C251.79,-64.22 245.16,-54.14 239.13,-44.95"/>
<polygon fill="black" stroke="black" points="242.14,-43.17 233.73,-36.73 236.29,-47.01 242.14,-43.17"/>
</g>
</g>
</svg>
