<?xml version="1.0" encoding="UTF-8" standalone="no"?>
<!DOCTYPE svg PUBLIC "-//W3C//DTD SVG 1.1//EN"
 "http://www.w3.org/Graphics/SVG/1.1/DTD/svg11.dtd">
<!-- Generated by graphviz version 9.0.0 (20230911.1827)
 -->
<!-- Pages: 1 -->
<svg width="173pt" height="332pt"
 viewBox="0.00 0.00 173.24 332.00" xmlns="http://www.w3.org/2000/svg" xmlns:xlink="http://www.w3.org/1999/xlink">
<g id="graph0" class="graph" transform="scale(1 1) rotate(0) translate(4 328)">
<polygon fill="white" stroke="none" points="-4,4 -4,-328 169.24,-328 169.24,4 -4,4"/>
<!-- entry -->
<g id="node1" class="node">
<title>entry</title>
<ellipse fill="none" stroke="black" cx="74.1" cy="-306" rx="29.11" ry="18"/>
<text text-anchor="middle" x="74.1" y="-300.57" font-family="Times New Roman,serif" font-size="14.00">entry</text>
</g>
<!-- ifthen -->
<g id="node2" class="node">
<title>ifthen</title>
<ellipse fill="none" stroke="black" cx="31.1" cy="-162" rx="31.1" ry="18"/>
<text text-anchor="middle" x="31.1" y="-156.57" font-family="Times New Roman,serif" font-size="14.00">ifthen</text>
</g>
<!-- entry&#45;&gt;ifthen -->
<g id="edge1" class="edge">
<title>entry&#45;&gt;ifthen</title>
<path fill="none" stroke="black" d="M68.92,-287.87C61.65,-263.88 48.36,-219.99 39.63,-191.16"/>
<polygon fill="black" stroke="black" points="43,-190.19 36.75,-181.64 36.3,-192.22 43,-190.19"/>
</g>
<!-- ifelse -->
<g id="node4" class="node">
<title>ifelse</title>
<ellipse fill="none" stroke="black" cx="116.1" cy="-234" rx="29.61" ry="18"/>
<text text-anchor="middle" x="116.1" y="-228.57" font-family="Times New Roman,serif" font-size="14.00">ifelse</text>
</g>
<!-- entry&#45;&gt;ifelse -->
<g id="edge3" class="edge">
<title>entry&#45;&gt;ifelse</title>
<path fill="none" stroke="black" d="M83.85,-288.76C88.83,-280.46 95.01,-270.15 100.63,-260.79"/>
<polygon fill="black" stroke="black" points="103.49,-262.82 105.64,-252.45 97.49,-259.22 103.49,-262.82"/>
</g>
<!-- ifdone1 -->
<g id="node3" class="node">
<title>ifdone1</title>
<ellipse fill="none" stroke="black" cx="74.1" cy="-18" rx="38.59" ry="18"/>
<text text-anchor="middle" x="74.1" y="-12.57" font-family="Times New Roman,serif" font-size="14.00">ifdone1</text>
</g>
<!-- ifthen&#45;&gt;ifdone1 -->
<g id="edge2" class="edge">
<title>ifthen&#45;&gt;ifdone1</title>
<path fill="none" stroke="black" d="M36.29,-143.87C43.55,-119.88 56.85,-75.99 65.58,-47.16"/>
<polygon fill="black" stroke="black" points="68.91,-48.22 68.46,-37.64 62.21,-46.19 68.91,-48.22"/>
</g>
<!-- ifthen1 -->
<g id="node5" class="node">
<title>ifthen1</title>
<ellipse fill="none" stroke="black" cx="116.1" cy="-162" rx="35.6" ry="18"/>
<text text-anchor="middle" x="116.1" y="-156.57" font-family="Times New Roman,serif" font-size="14.00">ifthen1</text>
</g>
<!-- ifelse&#45;&gt;ifthen1 -->
<g id="edge4" class="edge">
<title>ifelse&#45;&gt;ifthen1</title>
<path fill="none" stroke="black" d="M116.1,-215.7C116.1,-208.41 116.1,-199.73 116.1,-191.54"/>
<polygon fill="black" stroke="black" points="119.6,-191.62 116.1,-181.62 112.6,-191.62 119.6,-191.62"/>
</g>
<!-- ifdone -->
<g id="node6" class="node">
<title>ifdone</title>
<ellipse fill="none" stroke="black" cx="116.1" cy="-90" rx="34.1" ry="18"/>
<text text-anchor="middle" x="116.1" y="-84.58" font-family="Times New Roman,serif" font-size="14.00">ifdone</text>
</g>
<!-- ifelse&#45;&gt;ifdone -->
<g id="edge5" class="edge">
<title>ifelse&#45;&gt;ifdone</title>
<path fill="none" stroke="black" d="M132.77,-219.14C143.1,-209.4 155.44,-195.41 161.1,-180 166.62,-164.98 166.62,-159.02 161.1,-144 157.03,-132.9 149.48,-122.53 141.72,-113.96"/>
<polygon fill="black" stroke="black" points="144.23,-111.53 134.74,-106.81 139.22,-116.42 144.23,-111.53"/>
</g>
<!-- ifthen1&#45;&gt;ifdone -->
<g id="edge6" class="edge">
<title>ifthen1&#45;&gt;ifdone</title>
<path fill="none" stroke="black" d="M116.1,-143.7C116.1,-136.41 116.1,-127.73 116.1,-119.54"/>
<polygon fill="black" stroke="black" points="119.6,-119.62 116.1,-109.62 112.6,-119.62 119.6,-119.62"/>
</g>
<!-- ifdone&#45;&gt;ifdone1 -->
<g id="edge7" class="edge">
<title>ifdone&#45;&gt;ifdone1</title>
<path fill="none" stroke="black" d="M106.15,-72.41C101.29,-64.3 95.32,-54.35 89.85,-45.25"/>
<polygon fill="black" stroke="black" points="92.91,-43.54 84.76,-36.77 86.91,-47.14 92.91,-43.54"/>
</g>
</g>
</svg>
